<svg width="37" height="30" viewBox="0 0 37 30" fill="none" xmlns="http://www.w3.org/2000/svg">
<path d="M32.2899 30H3.7899C1.6899 30 0.039898 28.35 0.039898 26.25V8.25C0.039898 6.15 1.6899 4.5 3.7899 4.5H32.2899C34.3899 4.5 36.0399 6.15 36.0399 8.25V26.25C36.0399 28.35 34.3899 30 32.2899 30ZM3.7899 6C2.5899 6 1.5399 7.05 1.5399 8.25V26.25C1.5399 27.45 2.5899 28.5 3.7899 28.5H32.2899C33.4899 28.5 34.5399 27.45 34.5399 26.25V8.25C34.5399 7.05 33.4899 6 32.2899 6H3.7899Z" fill="#838383"/>
<path d="M23.2899 6C22.8399 6 22.5399 5.7 22.5399 5.25V2.25C22.5399 1.8 22.2399 1.5 21.7899 1.5H14.2899C13.8399 1.5 13.5399 1.8 13.5399 2.25V5.25C13.5399 5.7 13.2399 6 12.7899 6C12.3399 6 12.0399 5.7 12.0399 5.25V2.25C12.0399 1.05 13.0899 0 14.2899 0H21.7899C22.9899 0 24.0399 1.05 24.0399 2.25V5.25C24.0399 5.7 23.7399 6 23.2899 6Z" fill="#838383"/>
<path d="M18.0399 18C17.8899 18 17.8899 18 17.7399 18L0.489898 12C0.189898 11.85 -0.110102 11.4 0.039898 10.95C0.189898 10.65 0.639898 10.35 1.0899 10.5L18.0399 16.5L34.9899 10.5C35.4399 10.35 35.7399 10.5 35.8899 10.95C36.0399 11.4 35.8899 11.7 35.4399 11.85L18.1899 17.85C18.1899 18 18.1899 18 18.0399 18Z" fill="#838383"/>
</svg>
