<svg width="22" height="30" viewBox="0 0 22 30" fill="none" xmlns="http://www.w3.org/2000/svg">
<path d="M10.5469 0C4.73133 0 0 4.73133 0 10.5469C0 12.5118 0.544277 14.4293 1.57436 16.0929L9.94652 29.5845C10.1069 29.843 10.3894 30 10.6933 30C10.6956 30 10.6979 30 10.7003 30C11.0068 29.9976 11.2899 29.8357 11.4473 29.5727L19.6061 15.9504C20.5794 14.322 21.0938 12.4535 21.0938 10.5469C21.0938 4.73133 16.3624 0 10.5469 0ZM18.0976 15.0479L10.68 27.4328L3.06838 15.1668C2.21098 13.7821 1.74609 12.1846 1.74609 10.5469C1.74609 5.70059 5.70059 1.74609 10.5469 1.74609C15.3932 1.74609 19.3418 5.70059 19.3418 10.5469C19.3418 12.136 18.9076 13.6927 18.0976 15.0479Z" fill="#838383"/>
<path d="M10.5469 5.27344C7.6391 5.27344 5.27344 7.6391 5.27344 10.5469C5.27344 13.4361 7.60061 15.8203 10.5469 15.8203C13.5295 15.8203 15.8203 13.4043 15.8203 10.5469C15.8203 7.6391 13.4546 5.27344 10.5469 5.27344ZM10.5469 14.0742C8.59822 14.0742 7.01953 12.4903 7.01953 10.5469C7.01953 8.60836 8.60836 7.01953 10.5469 7.01953C12.4854 7.01953 14.0684 8.60836 14.0684 10.5469C14.0684 12.4619 12.5264 14.0742 10.5469 14.0742Z" fill="#838383"/>
</svg>
