<svg width="305" height="53" viewBox="0 0 305 53" fill="none" xmlns="http://www.w3.org/2000/svg">
<path d="M1.23256 39.5035C2.09535 40.1198 3.22519 40.6539 4.62209 41.1058C6.06008 41.5578 7.70349 41.7837 9.55233 41.7837C12.3872 41.7837 14.5236 41.1469 15.9616 39.8733C17.3996 38.5585 18.3446 36.607 18.7965 34.0186C19.2895 31.4302 19.536 28.205 19.536 24.343V1.23256H23.85V23.4802C23.85 26.7671 23.6857 29.7663 23.357 32.4779C23.0283 35.1895 22.3915 37.5314 21.4465 39.5035C20.5016 41.4756 19.0841 42.9957 17.1942 44.064C15.3043 45.1322 12.7981 45.6663 9.67558 45.6663C7.6624 45.6663 5.87519 45.4403 4.31395 44.9884C2.75271 44.5364 1.31473 43.8585 0 42.9547L1.23256 39.5035Z" fill="white"/>
<path d="M85.255 45.6047C82.7488 45.6047 80.4275 44.9678 78.291 43.6942C76.1546 42.3795 74.4906 40.736 73.2992 38.764V44.9884H69.5399V0H73.7306V19.5977C75.1686 17.4202 76.8941 15.674 78.9073 14.3593C80.9205 13.0035 83.2623 12.3256 85.9329 12.3256C88.1926 12.3256 90.2058 12.7981 91.9724 13.743C93.7802 14.688 95.3209 15.9616 96.5945 17.564C97.8682 19.1252 98.8337 20.9124 99.491 22.9256C100.148 24.8977 100.477 26.9314 100.477 29.0267C100.477 32.026 99.7992 34.7787 98.4434 37.2849C97.1286 39.7911 95.3209 41.8043 93.0201 43.3244C90.7193 44.8446 88.131 45.6047 85.255 45.6047ZM84.2689 41.907C86.6108 41.907 88.6651 41.2907 90.4317 40.0581C92.2395 38.8256 93.6569 37.2438 94.6841 35.3128C95.7112 33.3407 96.2248 31.2453 96.2248 29.0267C96.2248 26.7671 95.7317 24.6512 94.7457 22.6791C93.8007 20.707 92.4655 19.1047 90.7399 17.8721C89.0143 16.6395 87.0217 16.0233 84.762 16.0233C82.2558 16.0233 80.0372 16.8244 78.1061 18.4267C76.2162 20.0291 74.7577 21.8984 73.7306 24.0349V34.0186C73.936 35.4977 74.6139 36.8329 75.7643 38.0244C76.9147 39.2159 78.2705 40.1609 79.8317 40.8593C81.393 41.5578 82.872 41.907 84.2689 41.907Z" fill="white"/>
<path d="M133.583 12.6953C133.213 12.2845 132.432 11.7504 131.241 11.093C130.049 10.3946 128.612 9.77829 126.927 9.24418C125.284 8.66899 123.579 8.38139 121.812 8.38139C117.169 8.38139 114.848 10.0248 114.848 13.3116C114.848 14.5031 115.218 15.4481 115.957 16.1465C116.697 16.845 117.806 17.4407 119.285 17.9337C120.764 18.4267 122.613 18.9609 124.832 19.536C127.708 20.2756 130.193 21.1384 132.289 22.1244C134.425 23.1105 136.048 24.4252 137.157 26.0686C138.308 27.6709 138.883 29.8074 138.883 32.4779C138.883 35.6004 138.123 38.1271 136.603 40.0581C135.124 41.9481 133.151 43.3244 130.686 44.1872C128.221 45.05 125.551 45.4814 122.675 45.4814C119.388 45.4814 116.122 44.9884 112.876 44.0023C109.671 42.9752 106.816 41.5783 104.31 39.8116L108.069 32.4779C108.439 32.8477 109.096 33.3407 110.041 33.957C110.986 34.5322 112.136 35.1279 113.492 35.7442C114.848 36.3194 116.327 36.8124 117.929 37.2233C119.532 37.6341 121.155 37.8395 122.798 37.8395C127.482 37.8395 129.824 36.3399 129.824 33.3407C129.824 32.0671 129.351 31.0399 128.406 30.2593C127.461 29.4787 126.126 28.8213 124.4 28.2872C122.716 27.7531 120.744 27.1574 118.484 26.5C115.69 25.7194 113.369 24.8566 111.52 23.9116C109.712 22.9256 108.356 21.7136 107.453 20.2756C106.549 18.7965 106.097 16.9271 106.097 14.6674C106.097 11.6682 106.795 9.16202 108.192 7.14884C109.63 5.09457 111.561 3.55388 113.985 2.52674C116.409 1.45853 119.1 0.924418 122.058 0.924418C125.099 0.924418 127.934 1.41744 130.563 2.40349C133.193 3.38953 135.452 4.51938 137.342 5.79302L133.583 12.6953Z" fill="white"/>
<path d="M159.484 45.6047C155.992 45.6047 152.972 44.8446 150.425 43.3244C147.918 41.8043 145.967 39.7911 144.57 37.2849C143.173 34.7376 142.475 31.9849 142.475 29.0267C142.475 25.9864 143.152 23.1926 144.508 20.6453C145.905 18.057 147.877 16.0027 150.425 14.4826C152.972 12.9213 156.012 12.1407 159.546 12.1407C163.079 12.1407 166.099 12.9213 168.605 14.4826C171.111 16.0027 173.021 18.0364 174.336 20.5837C175.692 23.0899 176.37 25.8016 176.37 28.7186C176.37 29.7868 176.308 30.7112 176.185 31.4919H151.226C151.431 33.9981 152.356 35.9702 153.999 37.4081C155.683 38.8461 157.614 39.5651 159.792 39.5651C161.435 39.5651 162.976 39.1748 164.414 38.3942C165.893 37.5725 166.9 36.5043 167.434 35.1895L174.521 37.1616C173.33 39.6267 171.419 41.6605 168.79 43.2628C166.16 44.824 163.058 45.6047 159.484 45.6047ZM151.041 26.2535H167.927C167.68 23.8295 166.756 21.8779 165.154 20.3988C163.592 18.8787 161.682 18.1186 159.422 18.1186C157.204 18.1186 155.293 18.8787 153.691 20.3988C152.13 21.8779 151.246 23.8295 151.041 26.2535Z" fill="white"/>
<path d="M179.182 35.436C179.182 33.3407 179.757 31.5124 180.908 29.9512C182.099 28.3488 183.743 27.1163 185.838 26.2535C187.933 25.3907 190.337 24.9593 193.048 24.9593C194.404 24.9593 195.781 25.0826 197.178 25.3291C198.574 25.5345 199.786 25.8426 200.814 26.2535V24.5279C200.814 22.4736 200.197 20.8919 198.965 19.7826C197.773 18.6733 195.986 18.1186 193.603 18.1186C191.836 18.1186 190.152 18.4267 188.55 19.043C186.947 19.6593 185.263 20.5632 183.496 21.7547L180.846 16.3314C182.983 14.9345 185.16 13.8868 187.379 13.1884C189.638 12.4899 192.001 12.1407 194.466 12.1407C199.067 12.1407 202.642 13.2911 205.189 15.5919C207.778 17.8926 209.072 21.1795 209.072 25.4523V35.7442C209.072 36.6481 209.216 37.2849 209.503 37.6547C209.791 37.9833 210.304 38.1888 211.044 38.2709V44.9884C210.304 45.1527 209.626 45.2554 209.01 45.2965C208.435 45.3787 207.942 45.4198 207.531 45.4198C205.888 45.4198 204.635 45.05 203.772 44.3105C202.909 43.5709 202.395 42.6671 202.231 41.5988L202.046 39.9349C200.608 41.7837 198.841 43.2012 196.746 44.1872C194.692 45.1322 192.576 45.6047 190.398 45.6047C188.221 45.6047 186.29 45.1733 184.605 44.3105C182.921 43.4066 181.586 42.1946 180.6 40.6744C179.655 39.1132 179.182 37.3671 179.182 35.436ZM199.273 37.1C200.3 36.114 200.814 35.169 200.814 34.2651V30.9988C198.677 30.136 196.52 29.7047 194.343 29.7047C192.165 29.7047 190.398 30.1771 189.043 31.1221C187.687 32.026 187.009 33.238 187.009 34.7581C187.009 35.9907 187.502 37.1 188.488 38.086C189.474 39.0721 190.891 39.5651 192.74 39.5651C193.973 39.5651 195.164 39.3391 196.315 38.8872C197.506 38.4353 198.492 37.8395 199.273 37.1Z" fill="white"/>
<path d="M236.017 19.8442C233.51 19.8442 231.271 20.3372 229.299 21.3233C227.327 22.2682 225.91 23.6446 225.047 25.4523V44.9884H216.789V12.6953H224.369V19.5977C225.478 17.3791 226.916 15.6329 228.683 14.3593C230.491 13.0857 232.381 12.3872 234.353 12.264C235.215 12.264 235.77 12.2845 236.017 12.3256V19.8442Z" fill="white"/>
<path d="M255.237 45.6047C251.745 45.6047 248.725 44.824 246.178 43.2628C243.631 41.7016 241.659 39.6473 240.262 37.1C238.865 34.5527 238.166 31.8 238.166 28.8419C238.166 25.8426 238.844 23.0694 240.2 20.5221C241.597 17.9748 243.569 15.9411 246.116 14.4209C248.664 12.9008 251.683 12.1407 255.176 12.1407C258.709 12.1407 261.708 12.9008 264.173 14.4209C266.68 15.9411 268.549 17.9337 269.781 20.3988L261.708 22.864C260.27 20.3988 258.072 19.1663 255.114 19.1663C253.512 19.1663 252.074 19.5771 250.8 20.3988C249.526 21.1795 248.52 22.3093 247.78 23.7884C247.041 25.2264 246.671 26.9109 246.671 28.8419C246.671 30.7318 247.041 32.4163 247.78 33.8953C248.561 35.3333 249.588 36.4837 250.862 37.3465C252.135 38.1682 253.553 38.5791 255.114 38.5791C256.593 38.5791 257.949 38.2298 259.181 37.5314C260.455 36.7919 261.338 35.8674 261.831 34.7581L269.905 37.2233C268.795 39.6473 266.947 41.6605 264.358 43.2628C261.811 44.824 258.771 45.6047 255.237 45.6047Z" fill="white"/>
<path d="M304.999 44.9884H296.741V26.8698C296.741 24.3636 296.248 22.4942 295.262 21.2616C294.317 20.0291 293.002 19.4128 291.318 19.4128C290.29 19.4128 289.222 19.7004 288.113 20.2756C287.045 20.8508 286.059 21.6519 285.155 22.6791C284.292 23.6651 283.655 24.8155 283.244 26.1302V44.9884H274.986V0H283.244V18.6733C284.436 16.619 286.059 15.0167 288.113 13.8663C290.167 12.7159 292.406 12.1407 294.83 12.1407C297.583 12.1407 299.699 12.757 301.178 13.9895C302.657 15.2221 303.664 16.8039 304.198 18.7349C304.732 20.6659 304.999 22.6996 304.999 24.836V44.9884Z" fill="white"/>
<g clip-path="url(#clip0)">
<path d="M67.7238 49.3735L58.0433 39.3052C60.5323 36.3464 61.8961 32.6235 61.8961 28.7479C61.8961 19.6928 54.5289 12.3256 45.4738 12.3256C36.4187 12.3256 29.0515 19.6928 29.0515 28.7479C29.0515 37.803 36.4187 45.1701 45.4738 45.1701C48.8732 45.1701 52.1127 44.1448 54.8823 42.1984L64.6364 52.3431C65.0442 52.7665 65.5925 53 66.1801 53C66.7364 53 67.264 52.7879 67.6646 52.4024C68.5157 51.5834 68.5428 50.2254 67.7238 49.3735ZM45.4738 16.6097C52.1669 16.6097 57.612 22.0547 57.612 28.7479C57.612 35.441 52.1669 40.8861 45.4738 40.8861C38.7806 40.8861 33.3356 35.441 33.3356 28.7479C33.3356 22.0547 38.7806 16.6097 45.4738 16.6097Z" fill="white"/>
</g>
<defs>
<clipPath id="clip0">
<rect width="40.6744" height="40.6744" fill="white" transform="translate(28.3489 12.3256)"/>
</clipPath>
</defs>
</svg>
